<?xml version="1.0" encoding="UTF-8"?>
<svg xmlns="http://www.w3.org/2000/svg" xmlns:xlink="http://www.w3.org/1999/xlink" width="50pt" height="50pt" viewBox="0 0 50 50" version="1.1">
<g id="surface12830923">
<path style="fill-rule:nonzero;fill:rgb(0%,0%,0%);fill-opacity:1;stroke-width:8;stroke-linecap:butt;stroke-linejoin:round;stroke:rgb(4.705882%,23.137255%,51.764706%);stroke-opacity:1;stroke-miterlimit:10;" d="M 172 25.805628 L 172 43 L 0 43 L 0 25.805628 Z M 172 77.402814 L 172 94.597186 L 0 94.597186 L 0 77.402814 Z M 172 129 L 172 146.194372 L 0 146.194372 L 0 129 Z M 172 129 " transform="matrix(0.277616,0,0,0.277616,1.125,1.125)"/>
<path style=" stroke:none;fill-rule:nonzero;fill:rgb(4.705882%,23.137255%,51.764706%);fill-opacity:1;" d="M 1.125 8.289062 L 1.125 13.0625 L 48.875 13.0625 L 48.875 8.289062 Z M 1.125 22.613281 L 1.125 27.386719 L 48.875 27.386719 L 48.875 22.613281 Z M 1.125 36.9375 L 1.125 41.710938 L 48.875 41.710938 L 48.875 36.9375 Z M 1.125 36.9375 "/>
</g>
</svg>
